<svg width="50" height="48" viewBox="0 0 50 48" fill="none" xmlns="http://www.w3.org/2000/svg">
    <path
        fill-rule="evenodd"
        clip-rule="evenodd"
        d="M33.9695 20.6285L6.04448 1.34284C4.63019 0.45355 2.90876 0.692835 1.6659 1.63212C1.16113 2.00108 0.74811 2.48134 0.458873 3.03566C0.169636 3.58997 0.0119522 4.20346 -0.00195312 4.82855L-0.00195312 43.0607C-0.00195312 46.2178 3.49448 48.2607 6.04448 46.6464L33.973 27.4785C36.2945 25.9107 36.2945 22.1928 33.973 20.625M49.1088 5.21784C49.1088 4.27063 48.7325 3.36223 48.0627 2.69245C47.3929 2.02268 46.4845 1.64641 45.5373 1.64641C44.5901 1.64641 43.6817 2.02268 43.0119 2.69245C42.3422 3.36223 41.9659 4.27063 41.9659 5.21784V42.775C41.9659 43.7222 42.3422 44.6306 43.0119 45.3004C43.6817 45.9701 44.5901 46.3464 45.5373 46.3464C46.4845 46.3464 47.3929 45.9701 48.0627 45.3004C48.7325 44.6306 49.1088 43.7222 49.1088 42.775V5.21784Z"
        fill="currentColor"
    />
</svg>
